<svg xmlns="http://www.w3.org/2000/svg" viewBox="0 0 80 80" role="img" aria-label="Freesia DEX">
  <g transform="translate(40,40)">
    <path d="M0,0 C7.15,-5.76 13.00,-23.04 0.00,-32.00 C-13.00,-23.04 -7.15,-5.76 0,0 Z" fill="#2E6F68" transform="rotate(-12) scale(0.94)"/>
    <path d="M0,0 C7.15,-5.76 13.00,-23.04 0.00,-32.00 C-13.00,-23.04 -7.15,-5.76 0,0 Z" fill="#3E8A80" transform="rotate(48) scale(0.94)"/>
    <path d="M0,0 C7.15,-5.76 13.00,-23.04 0.00,-32.00 C-13.00,-23.04 -7.15,-5.76 0,0 Z" fill="#57A99B" transform="rotate(108) scale(0.94)"/>
    <path d="M0,0 C7.15,-5.76 13.00,-23.04 0.00,-32.00 C-13.00,-23.04 -7.15,-5.76 0,0 Z" fill="#6FC2B4" transform="rotate(168) scale(0.94)"/>
    <path d="M0,0 C7.15,-5.76 13.00,-23.04 0.00,-32.00 C-13.00,-23.04 -7.15,-5.76 0,0 Z" fill="#7FD0C2" transform="rotate(228) scale(0.94)"/>
    <path d="M0,0 C7.15,-5.76 13.00,-23.04 0.00,-32.00 C-13.00,-23.04 -7.15,-5.76 0,0 Z" fill="#8CDCCB" transform="rotate(288) scale(0.94)"/>
  </g>
</svg>